<?xml version="1.0" encoding="UTF-8"?>
<svg width="160px" height="29px" viewBox="0 0 160 29" version="1.1" xmlns="http://www.w3.org/2000/svg" xmlns:xlink="http://www.w3.org/1999/xlink">
    <!-- Generator: Sketch 58 (84663) - https://sketch.com -->
    <title>gs-logo-on-light</title>
    <desc>Created with Sketch.</desc>
    <defs>
        <path d="M17.0257414,28.0588652 L17.0217119,28.0588652 C16.8303619,28.0572501 16.6972796,27.8257365 16.8273133,27.6522979 C17.1044206,27.2826653 17.3916643,26.7840478 17.5021647,26.2258768 C16.8771383,26.4271563 16.2155641,26.5395349 15.5288632,26.5415391 C14.7586446,26.5439728 14.0202627,26.4056826 13.3282794,26.1594518 C13.4279296,26.7441069 13.7264517,27.2673475 14.0141238,27.6512958 C14.1634562,27.8504279 13.9660119,28.1261492 13.7320196,28.0426884 C10.8307439,27.0083756 9.92361343,25.2936354 9.80968675,23.7063053 C5.53914944,23.3925041 2.16332203,19.8334661 2.14975933,15.4685947 C2.13762428,11.5638314 4.82189676,8.28981992 8.44285213,7.39723306 L7.65750041,4.92361505 C7.49332036,4.72977983 7.20222199,4.70902199 7.01234419,4.8776615 L0.663001881,10.5499901 C0.378225591,10.8028367 0.00278753255,10.5563311 -1.06068224e-09,10.2559867 L-1.06068224e-09,10.2492586 C0.000756129821,10.1678296 0.0290153701,10.0827065 0.0939395424,10.0026991 L7.46990686,0.55287417 C7.89349139,0.0306356997 8.69783089,0.0604124546 9.08186944,0.612570837 L12.1062088,4.99089906 C13.1413997,4.42170494 14.360615,4.09988694 15.6851912,4.09573537 C16.9055486,4.09187012 18.0552373,4.39665238 19.053452,4.95797284 L22.1765849,0.479291227 C22.5606235,-0.0728671549 23.3649629,-0.10264391 23.7885475,0.41959456 L31.1646576,9.86927635 C31.4713174,10.2473552 30.9593611,10.7396738 30.5954525,10.4167105 L24.2461102,4.74438189 C24.0560896,4.57574238 23.7652767,4.59650022 23.6010967,4.79033544 L22.7967572,7.32336381 C26.4749614,8.15582453 29.22976,11.4397139 29.2420378,15.3812686 C29.2560288,19.8872933 25.6814721,23.5571352 21.2164885,23.6889832 C21.0216139,25.2817533 20.0368191,27.0056556 17.1094174,28.0436905 C17.0807838,28.0538448 17.0527032,28.0588652 17.0257414,28.0588652 L17.0257414,28.0588652 Z" id="path-1"></path>
        <linearGradient x1="9.8202352%" y1="100%" x2="9.8202352%" y2="0%" id="linearGradient-3">
            <stop stop-color="#D04358" offset="0%"></stop>
            <stop stop-color="#E87F2C" offset="100%"></stop>
        </linearGradient>
    </defs>
    <g id="Symbols" stroke="none" stroke-width="1" fill="none" fill-rule="evenodd">
        <g id="Nav/Desktop/Light-bg" transform="translate(-120.000000, -23.000000)">
            <g id="Navigation">
                <g id="gs-logo-on-light" transform="translate(120.000000, 23.000000)">
                    <g id="Group-3">
                        <mask id="mask-2" fill="white">
                            <use xlink:href="#path-1"></use>
                        </mask>
                        <g id="Clip-2"></g>
                        <polygon id="Fill-1" fill="url(#linearGradient-3)" mask="url(#mask-2)" points="0 28.0588652 159.153288 28.0588652 159.153288 0.0458103921 0 0.0458103921"></polygon>
                    </g>
                    <path d="M5.12480627,18.7461886 C6.82625756,21.569465 9.85948945,22.8232249 11.8993557,21.5464456 C13.9393639,20.2696662 14.2138466,16.9460441 12.5122532,14.1227677 C10.8106598,11.2994914 7.77757001,10.0457314 5.73756173,11.3225108 C3.69755345,12.5991453 3.4232129,15.9229122 5.12480627,18.7461886" id="Fill-4" fill="#FFFFFE"></path>
                    <path d="M7.29562345,19.2403647 C7.29562345,19.2403647 7.21513676,18.9776442 7.21513676,18.4980298 C7.21513676,18.0179884 7.29562345,17.7778966 7.29562345,17.7778966 L9.51869164,16.8410118 L7.29562345,15.8927416 C7.29562345,15.8927416 7.21513676,15.6298788 7.21513676,15.1615076 C7.21513676,14.670223 7.29562345,14.4302735 7.29562345,14.4302735 L11.1429159,16.0640935 C11.1429159,16.0640935 11.2235461,16.3381995 11.2235461,16.8182408 C11.2235461,17.2867544 11.1429159,17.6066871 11.1429159,17.6066871 L7.29562345,19.2403647" id="Fill-5" fill="#D44941"></path>
                    <path d="M26.5543138,18.7622627 C24.8612011,21.5815123 21.8291815,22.8248133 19.782284,21.5391597 C17.7352461,20.2536496 17.4484277,16.9260249 19.1415405,14.1066318 C20.8347936,11.2873822 23.8666728,10.0442248 25.9137107,11.3297348 C27.9606082,12.6153884 28.2474266,15.9430132 26.5543138,18.7622627" id="Fill-6" fill="#FFFFFE"></path>
                    <path d="M19.7192974,17.637001 C19.7192974,17.637001 19.6412056,17.418102 19.6412056,16.8354863 C19.6412056,16.252369 19.7192974,16.0336372 19.7192974,16.0336372 L24.7637185,16.0336372 C24.7637185,16.0336372 24.8521377,16.252369 24.8521377,16.8354863 C24.8521377,17.418102 24.7637185,17.637001 24.7637185,17.637001 L19.7192974,17.637001" id="Fill-7" fill="#D44941"></path>
                    <path d="M47.0038498,14.3579819 C47.5414459,14.3579819 47.6526529,14.6047219 47.6079128,14.9868034 L47.1160574,19.0079065 C46.8690577,20.9388159 45.5707367,22.8479331 41.2482413,22.8479331 C37.4414723,22.8479331 36.0756838,21.2084952 36.0756838,19.4345761 C36.0756838,19.2765822 36.0975535,19.0298421 36.1204239,18.8278336 L37.060681,11.0561669 C37.2848104,9.1242539 38.6058587,7.21513676 42.9274965,7.21513676 C46.7351232,7.21513676 48.1009117,8.85457462 48.1009117,10.6512896 C48.1009117,10.7864876 48.0781843,11.011292 48.0563145,11.2581755 L47.988847,11.864918 C47.9442498,12.3364625 47.7428478,12.5384711 47.2727193,12.5384711 L44.9656731,12.5384711 C44.4955446,12.5384711 44.3388827,12.2687918 44.4063502,11.864918 L44.4280771,11.7077843 C44.4509474,11.5506506 44.4509474,11.438105 44.4509474,11.3476385 C44.4509474,10.6065581 43.8012867,10.2474158 42.7708346,10.2474158 C41.6965001,10.2474158 40.82271,10.6740854 40.6887755,11.7077843 L39.8824529,18.1762162 C39.8597255,18.3333499 39.8378557,18.5134228 39.8378557,18.625825 C39.8378557,19.4565118 40.4646461,19.815654 41.5398383,19.815654 C42.7488219,19.815654 43.48782,19.388841 43.5998847,18.3562891 L43.7119494,17.3902609 L41.8751747,17.3902609 C41.4049032,17.3902609 41.2263716,17.1882523 41.2928385,16.7386435 L41.5171108,14.9868034 C41.561708,14.5152589 41.7858374,14.3579819 42.255966,14.3579819 L47.0038498,14.3579819" id="Fill-8" fill="#234A61"></path>
                    <path d="M53.8626569,9.74199391 C53.7920271,10.211506 53.6042299,10.3908028 53.1120664,10.3908028 L50.6977866,10.3908028 C50.2056231,10.3908028 50.040571,10.211506 50.1112007,9.74199391 L50.3458351,7.88564396 C50.4164648,7.41613189 50.6271569,7.21513676 51.11947,7.21513676 L53.5346476,7.21513676 C54.0268111,7.21513676 54.1670231,7.41613189 54.0963934,7.88564396 L53.8626569,9.74199391 Z M52.2678017,22.1764266 C52.1982194,22.6467952 52.0104222,22.8479331 51.518109,22.8479331 L49.1029314,22.8479331 C48.6107679,22.8479331 48.4467633,22.6467952 48.517393,22.1764266 L49.7830419,12.3362301 C49.8298789,11.8667181 50.040571,11.6655802 50.533782,11.6655802 L52.9479121,11.6655802 C53.4400756,11.6655802 53.6042299,11.8667181 53.5346476,12.3362301 L52.2678017,22.1764266 L52.2678017,22.1764266 Z" id="Fill-9" fill="#234A61"></path>
                    <path d="M58.2145564,18.8158218 C58.1917944,18.9964328 58.1917944,19.0861631 58.1917944,19.131172 C58.1917944,19.4693862 58.3040298,19.7617286 58.9774423,19.7617286 C59.8298016,19.7617286 60.7933942,19.1760371 61.3099061,18.837823 L61.7579889,15.2336562 C61.3318092,14.895442 60.5023551,14.3097505 59.6499959,14.3097505 C58.8424449,14.3097505 58.7302094,14.8055679 58.6626391,15.2565201 L58.2145564,18.8158218 Z M61.0625301,21.6096838 C60.3672145,22.1046384 59.3808599,22.8479331 57.5639059,22.8479331 C55.6130998,22.8479331 54.5143666,21.767287 54.5143666,19.9872048 C54.5143666,19.8065938 54.5362697,19.6041254 54.5590317,19.3785055 L55.1421119,14.6928298 C55.411391,12.5525322 56.3977456,11.2235461 58.7748746,11.2235461 C60.3901197,11.2235461 61.5116149,11.8989678 62.0946951,12.394929 L62.1840253,12.0795788 C62.3191659,11.6286266 62.4314014,11.4040132 62.9022461,11.4040132 L65.1671396,11.4040132 C65.5038459,11.4040132 65.7950281,11.5617602 65.7283167,12.0795788 L64.5164892,21.9919003 C64.449921,22.4657165 64.2473532,22.6683287 63.7765085,22.6683287 L61.6238504,22.6683287 C61.2423358,22.6683287 61.0625301,22.4877177 61.0625301,21.9919003 L61.0625301,21.6096838 L61.0625301,21.6096838 Z" id="Fill-10" fill="#234A61"></path>
                    <path d="M71.0332039,11.8013656 C71.5039517,11.8013656 71.616164,11.9776391 71.616164,12.44145 L71.616164,12.8171241 C72.2885791,12.3093154 73.4098435,11.624387 75.114068,11.624387 C76.8858489,11.624387 78.1639815,12.7291284 78.1639815,14.3201026 C78.1639815,14.3858173 78.1639815,14.4746592 78.1193256,14.8944722 L77.2224859,22.1845806 C77.1550726,22.6492376 76.9534053,22.8479331 76.4826575,22.8479331 L74.2172283,22.8479331 C73.8359354,22.8479331 73.5667117,22.7148113 73.6342681,22.1845806 L74.4188955,15.778096 C74.4645534,15.3798589 74.4645534,15.3142852 74.4645534,15.2693002 C74.4645534,14.8280523 74.2847847,14.6509327 73.7018245,14.6509327 C72.8268833,14.6509327 71.8405886,15.2037264 71.3698408,15.5345566 L70.5395555,22.1845806 C70.473001,22.6492376 70.2933755,22.8479331 69.8224845,22.8479331 L67.5125425,22.8479331 C67.1092079,22.8479331 66.8847833,22.6933764 66.9523397,22.1845806 L68.1629159,12.44145 C68.207715,11.9776391 68.4093822,11.8013656 68.8809888,11.8013656 L71.0332039,11.8013656" id="Fill-11" fill="#234A61"></path>
                    <path d="M84.0571792,18.4402617 C84.0341144,18.6381299 84.0341144,18.725962 84.0341144,18.8137941 C84.0341144,19.3646771 84.3983648,19.5850303 85.3525819,19.5850303 L85.8983047,19.5850303 C86.3974626,19.5850303 86.5574659,19.8492292 86.5111911,20.2452466 L86.306944,21.8083771 C86.2384748,22.2705847 86.0340826,22.4470921 85.5569741,22.4470921 L84.4205592,22.4470921 C81.443164,22.4470921 80.3077647,21.5441781 80.3077647,19.7167082 C80.3077647,19.496355 80.3298141,19.2545005 80.3528789,19.012646 L80.943716,14.2344389 L79.9433692,14.2344389 C79.4440662,14.2344389 79.3303377,14.0142263 79.375597,13.5958644 L79.5347299,12.2529466 C79.5799892,11.7907389 79.8074462,11.6807029 80.2844097,11.6143721 L81.2840312,11.4826942 L81.3072411,11.4826942 L81.5568926,9.47885738 C81.6030222,9.01650918 81.829754,8.81850048 82.3068625,8.81850048 L84.6481613,8.81850048 C85.1252699,8.81850048 85.2389984,9.0604955 85.193594,9.47885738 L84.9430722,11.4826942 L86.7840525,11.4826942 C87.2842259,11.4826942 87.4211643,11.7245487 87.3748896,12.0989242 L87.1935622,13.5958644 C87.1483029,14.058072 86.897636,14.2344389 86.4205275,14.2344389 L84.5796921,14.2344389 L84.0571792,18.4402617" id="Fill-12" fill="#234A61"></path>
                    <path d="M99.7293682,11.5506506 L99.7293682,11.4153092 C99.7293682,10.4941559 99.1036175,10.1350136 98.1196223,10.1350136 C97.0919702,10.1350136 96.3543662,10.5169517 96.2198284,11.5506506 L96.1979999,11.7744514 L96.1979999,11.9096495 C96.1979999,12.4937396 96.5772168,12.6508733 96.8009234,12.7404796 L100.399489,14.0207752 C101.852726,14.5371946 102.791209,15.6603565 102.791209,17.0530543 C102.791209,17.210188 102.769381,17.367465 102.746696,17.6150653 L102.59033,19.0079065 C102.366623,20.9388159 100.936071,22.8479331 96.6890701,22.8479331 C92.8667976,22.8479331 91.3917322,21.1865596 91.3917322,19.388841 C91.3917322,19.2765822 91.3917322,19.1422443 91.436388,18.8278336 L91.5926116,17.5026631 C91.638266,17.0311186 91.8609739,16.8282498 92.3310716,16.8282498 L94.6555943,16.8282498 C95.124836,16.8282498 95.2586604,17.0758501 95.1921762,17.5026631 L95.0803229,18.3333499 C95.0574957,18.4906269 95.0574957,18.6028858 95.0574957,18.7382272 C95.0574957,19.6137888 95.8397554,19.9281996 96.9127766,19.9281996 C98.007769,19.9281996 98.8570837,19.5461181 99.0135927,18.5134228 L99.0589618,18.2209476 C99.0809329,18.0638139 99.0809329,17.9742076 99.0809329,17.9514117 C99.0809329,17.2331272 98.0304536,16.8282498 97.3375053,16.5595742 L94.2755213,15.3459457 C93.3814083,15.0095993 92.5320937,14.0207752 92.5320937,12.7404796 C92.5320937,12.6061418 92.5540649,12.4041332 92.5767494,12.1793288 L92.7102886,11.0561669 C92.9341378,9.1242539 94.163668,7.21513676 98.3433289,7.21513676 C102.098261,7.21513676 103.41696,8.87751385 103.41696,10.6065581 C103.41696,10.6970246 103.41696,10.7864876 103.395132,11.0561669 L103.305107,11.8868537 C103.260594,12.3583981 103.036745,12.5612669 102.567503,12.5612669 L100.243123,12.5612669 C99.8183943,12.5612669 99.6620279,12.4041332 99.706541,11.8868537 L99.7293682,11.5506506" id="Fill-13" fill="#234A61"></path>
                    <path d="M120.408944,11.2235461 C120.879519,11.2235461 121.193427,11.4254249 120.991834,11.8966665 L116.912467,21.840596 C116.732764,22.2900593 116.643342,22.4470921 116.172767,22.4470921 L113.415704,22.4470921 C112.944413,22.4470921 112.854991,22.2452133 112.810209,21.840596 L112.429056,17.5537155 C112.384416,17.1042521 112.361524,16.3417261 112.361524,16.3188016 C112.339633,16.3417261 112.13804,17.0367681 111.935588,17.5537155 L110.120677,21.840596 C109.940974,22.2452133 109.851695,22.4470921 109.380118,22.4470921 L106.69073,22.4470921 C106.220154,22.4470921 106.152623,22.2671348 106.08595,21.840596 L104.628583,11.8966665 C104.561195,11.4254249 104.874816,11.2235461 105.345391,11.2235461 L107.497818,11.2235461 C107.968393,11.2235461 108.125204,11.4930522 108.169843,11.8966665 L108.843013,16.879592 C108.909543,17.4184609 108.887653,18.0249571 108.887653,18.0467354 C108.887653,18.0020326 109.111995,17.3289121 109.290696,16.879592 L111.308203,11.8966665 C111.465013,11.4930522 111.644716,11.2235461 112.115291,11.2235461 L114.289465,11.2235461 C114.76004,11.2235461 114.916994,11.4930522 114.961634,11.8966665 L115.410318,16.879592 C115.454958,17.3737582 115.47785,18.0020326 115.47785,18.0467354 C115.47785,18.0020326 115.679443,17.3289121 115.859146,16.879592 L117.741446,11.8966665 C117.8984,11.4930522 118.077959,11.2235461 118.548535,11.2235461 L120.408944,11.2235461" id="Fill-14" fill="#234A61"></path>
                    <path d="M124.754179,18.8158218 C124.73242,18.9964328 124.73242,19.0861631 124.73242,19.131172 C124.73242,19.4693862 124.844509,19.7617286 125.517041,19.7617286 C126.369374,19.7617286 127.333796,19.1760371 127.849432,18.837823 L128.29836,15.2336562 C127.872194,14.895442 127.041763,14.3097505 126.189574,14.3097505 C125.38305,14.3097505 125.270675,14.8055679 125.20325,15.2565201 L124.754179,18.8158218 Z M127.602923,21.6096838 C126.907772,22.1046384 125.920303,22.8479331 124.104551,22.8479331 C122.15266,22.8479331 121.053961,21.767287 121.053961,19.9872048 C121.053961,19.8065938 121.076866,19.6041254 121.098768,19.3785055 L121.68183,14.6928298 C121.950958,12.5525322 122.938284,11.2235461 125.315482,11.2235461 C126.930534,11.2235461 128.050992,11.8989678 128.634054,12.394929 L128.724383,12.0795788 C128.858661,11.6286266 128.970893,11.4040132 129.441723,11.4040132 L131.707405,11.4040132 C132.043242,11.4040132 132.335274,11.5617602 132.267706,12.0795788 L131.056775,21.9919003 C130.98935,22.4657165 130.787647,22.6683287 130.316817,22.6683287 L128.163224,22.6683287 C127.781864,22.6683287 127.602923,22.4877177 127.602923,21.9919003 L127.602923,21.6096838 L127.602923,21.6096838 Z" id="Fill-15" fill="#234A61"></path>
                    <path d="M141.885218,12.2651765 L141.664088,13.9884263 C141.598693,14.4522372 141.399127,14.5853589 140.914022,14.6509327 C139.411916,14.8280523 138.307816,15.4464198 137.800161,15.8662328 L137.027686,22.1845806 C136.961164,22.6492376 136.785134,22.8479331 136.320606,22.8479331 L134.04687,22.8479331 C133.583188,22.8479331 133.428862,22.6492376 133.494397,22.1845806 L134.687288,12.44145 C134.752964,11.9776391 134.929981,11.8013656 135.393522,11.8013656 L137.513637,11.8013656 C137.977178,11.8013656 138.087673,11.9776391 138.087673,12.44145 L138.065264,13.0608046 C138.683413,12.44145 139.611342,11.624387 141.288632,11.624387 C141.753019,11.624387 141.9516,11.8013656 141.885218,12.2651765" id="Fill-16" fill="#234A61"></path>
                    <path d="M145.985709,11.8013656 C146.456766,11.8013656 146.546969,11.9776391 146.546969,12.44145 L146.546969,12.8171241 C147.196999,12.3093154 148.094728,11.624387 149.934572,11.624387 C151.190247,11.624387 152.334244,12.1987566 152.738007,13.0823805 C153.343652,12.6409916 154.262858,11.624387 156.484988,11.624387 C158.23463,11.624387 159.53469,12.7065653 159.53469,14.2536827 C159.53469,14.3858173 159.53469,14.4746592 159.513214,14.6949306 L158.592576,22.1845806 C158.525282,22.6492376 158.3234,22.8479331 157.852343,22.8479331 L155.587259,22.8479331 C155.206404,22.8479331 154.958706,22.6268156 155.004523,22.1845806 L155.789141,15.778096 C155.833526,15.3798589 155.833526,15.3142852 155.833526,15.2693002 C155.833526,14.8280523 155.587259,14.6509327 155.070385,14.6509327 C154.196996,14.6509327 153.299267,15.1813044 152.849686,15.5345566 L152.849686,15.5794005 L152.042159,22.1845806 C151.974866,22.6492376 151.772984,22.8479331 151.301927,22.8479331 L149.036843,22.8479331 C148.655988,22.8479331 148.409721,22.6268156 148.454106,22.1845806 L149.261633,15.6009764 C149.28311,15.3798589 149.28311,15.3142852 149.28311,15.2693002 C149.28311,14.8280523 149.036843,14.6509327 148.519968,14.6509327 C147.646579,14.6509327 146.770327,15.1813044 146.322178,15.5345566 L145.493175,22.1845806 C145.425881,22.6492376 145.245476,22.8479331 144.774419,22.8479331 L142.464234,22.8479331 C142.060757,22.8479331 141.859018,22.6268156 141.903833,22.1845806 L143.11498,12.44145 C143.182274,11.9776391 143.361247,11.8013656 143.833736,11.8013656 L145.985709,11.8013656" id="Fill-17" fill="#234A61"></path>
                </g>
            </g>
        </g>
    </g>
</svg>